<svg width="100" height="100" viewBox="0 0 100 100" fill="none" xmlns="http://www.w3.org/2000/svg">
  <path fill-rule="evenodd" clip-rule="evenodd" d="M50 95C73.4051 95 92 76.4051 92 53C92 29.5949 73.4051 11 50 11C26.5949 11 8 29.5949 8 53C8 76.4051 26.5949 95 50 95ZM50 98C75.4053 98 96 77.4053 96 52C96 26.5947 75.4053 6 50 6C24.5947 6 4 26.5947 4 52C4 77.4053 24.5947 98 50 98Z" fill="#C4C4C4"/>
  <path d="M50 0C77.6142 0 100 22.3858 100 50C100 77.6142 77.6142 100 50 100C22.3858 100 0 77.6142 0 50C0 22.3858 22.3858 0 50 0ZM50 3C24.804 3 3 24.804 3 50C3 75.196 24.804 97 50 97C75.196 97 97 75.196 97 50C97 24.804 75.196 3 50 3Z" fill="#808080"/>
  <path d="M62 53C62 62.9411 53.9411 71 44 71C34.0589 71 26 62.9411 26 53C26 43.0589 34.0589 35 44 35C53.9411 35 62 43.0589 62 53Z" fill="#F4F4F4"/>
  <path d="M70 53C70 66.2548 58.2548 78 45 78C31.7452 78 20 66.2548 20 53C20 39.7452 31.7452 28 45 28C58.2548 28 70 39.7452 70 53Z" fill="black" fill-opacity="0.1"/>
</svg>
