<?xml version="1.0" encoding="UTF-8"?>
<svg id="Layer_1" data-name="Layer 1" xmlns="http://www.w3.org/2000/svg" viewBox="0 0 581.22 542.79">
  <defs>
    <style>
      .cls-1 {
        fill: #9c1d20;
      }

      .cls-1, .cls-2, .cls-3, .cls-4, .cls-5, .cls-6 {
        stroke-width: 0px;
      }

      .cls-2 {
        fill: #cb2227;
      }

      .cls-3 {
        fill: #fffefe;
      }

      .cls-4 {
        fill: #130d0d;
      }

      .cls-5 {
        fill: #ac988b;
      }

      .cls-6 {
        fill: #d9ccc4;
      }
    </style>
  </defs>
  <path class="cls-3" d="m.09.09c192.28,0,384.56.01,576.84-.09,3.51,0,4.3.79,4.3,4.3-.1,178.06-.1,356.12,0,534.18,0,3.51-.79,4.31-4.3,4.31-190.88-.1-381.75-.1-572.63,0-3.51,0-4.3-.79-4.3-4.3C.1,359.02.09,179.55.09.09Zm541.68,190.18h.02c-2.95-.06-5.7.84-8.44,1.78-3.18,2.12-6.91.48-10.32,1.57-9.47,3.02-19.39,4-29.11,5.93-7.28,1.45-9.68.08-12.81-6.73-3.02-6.59-5.74-13.33-8.62-19.99-2.8-6.47-5.28-6.83-10.36-1.56-2.89,1.16-4.36,3.88-6.46,5.91-4.87,4.69-9.82,9.29-14.55,13.75-.78-6.13-1.61-12.7-2.44-19.28-2.27-11.25-5.29-22.23-10.82-32.43-2.69-4.96-5.96-7.74-12.09-7.17-4.99.47-8.48,3.47-12.49,5.6-7.09,3.77-13.26,9-19.83,13.67-1.03-1.7-.74-3.13-.51-4.44,4.11-23.68,8.22-47.35,12.48-71,.53-2.95.12-5.26-2.25-7.04-2.4-1.81-4.71-.72-6.89.54-1.34.77-2.58,1.72-3.83,2.64-8.51,6.25-16.92,12.65-25.55,18.73-8.55,6.03-14.13,4.66-19.37-4.37-1.41-2.42-2.83-4.84-4.08-7.35-11.94-24.03-23.85-48.07-35.73-72.13-1.4-2.84-2.62-5.84-6.37-5.95-3.99-.12-5.48,2.96-6.94,5.94-7.82,16.01-15.56,32.06-23.49,48.01-5.58,11.23-11.19,22.46-17.22,33.46-3.68,6.72-8.57,7.66-15.28,3.89-1.08-.61-2.12-1.31-3.14-2.02-9.95-6.92-19.89-13.86-29.84-20.79-2.28-1.59-4.58-2.57-7.26-.75-2.63,1.78-2.6,4.26-2.1,6.93,2.43,12.91,5.05,25.78,7.26,38.72,2.11,12.39,6.13,24.47,6.33,38.04-2.29-2.45-5.21-2.84-6.95-4.57-6.13-6.08-13.62-10.08-20.99-14.21-7.64-4.29-11.69-3.21-16.3,4.42-7.25,12.01-10.45,25.37-11.93,39.2-.08,5.28-.17,10.56-.25,15.84-2.29,2.03-2.99-.62-3.91-1.57-6.81-7.04-14.21-13.48-20.74-20.81-4.34-4.87-7.92-4.26-10.53,1.64-2.68,6.07-4.97,12.32-7.5,18.47-3.52,8.56-7.21,10.26-16.37,8.43-14.2-2.84-28.45-5.4-42.68-8.07-1.12-1.32-2.6-.79-3.99-.78-.21-.2-.45-.26-.73-.16-2.63-1.54-5.64-1.57-8.52-2.13-8.35-2.78-12.88,1.11-10.58,10.05,6.58,25.61,12.3,51.45,18.35,77.2,2.11,8.97-.37,13.04-9.38,15.28-3.89.97-7.84,1.7-11.68,2.84-3.65,1.09-7.63,1.21-10.8,3.78-2.97,2.41-4.19,4.98-1.34,8.26,1.12,1.29,2.21,2.61,3.47,3.75,20.1,18.36,40.26,36.65,60.33,55.05,23.18,21.24,46.16,42.71,69.51,63.76,5.42,4.89,7,10.31,5.98,17.02-.4,2.61-.98,5.19-1.53,7.77-1.34,6.37-3.1,12.68-3.96,19.11-.86,6.43,2.64,9.18,9.04,7.82,2.54-.54,5.03-1.32,7.58-1.81,36.97-7.14,73.93-14.32,110.93-21.32,11.43-2.16,14.65.81,14.63,12.64-.03,19.83-.07,39.66-.15,59.49-.03,7.51,4.08,12.76,10.32,13,9.37.37,14.55-3.65,14.67-12.07.31-21.07.72-42.14.03-63.21-.14-4.36.75-8.06,5.15-10.01,1.87.63,3.57-.51,5.61-.32,7.23.69,14.15,3.1,21.41,3.38,11.31,2.26,22.61,4.53,33.92,6.79,22.12,4.41,44.25,8.8,66.37,13.22,7.25,1.45,10.35-1.64,8.69-8.81-1.81-7.86-3.85-15.66-5.52-23.54-1.72-8.13-.28-14.96,6.74-20.79,11.84-9.84,23.08-20.43,34.41-30.86,14.25-13.12,28.27-26.47,42.52-39.59,17.46-16.07,35.05-31.99,52.57-47.99,2.23-2.03,4.08-4.19,3.09-7.67-.96-3.4-3.52-4.26-6.45-5.12-7.15-2.09-14.6-2.77-21.68-5.4-7.25-2.69-8.47-8.45-7.36-13.53,4.51-20.49,9.33-40.91,13.99-61.36,1.61-7.06,3.23-14.13,4.54-21.26.6-3.26-.71-6.13-4.42-6.37-2.67-.17-5.57-.32-8.06,1.29-2.62.01-5.1.68-7.48,1.73Z"/>
  <path class="cls-2" d="m41.53,191.15c14.23,2.68,28.48,5.24,42.68,8.07,9.16,1.83,12.84.13,16.37-8.43,2.53-6.14,4.81-12.39,7.5-18.47,2.61-5.9,6.19-6.51,10.53-1.64,6.53,7.33,13.93,13.77,20.74,20.81.92.95,1.62,3.6,3.91,1.57,1.62-5.26,1.22-10.55.25-15.84,1.48-13.83,4.68-27.19,11.93-39.2,4.61-7.63,8.66-8.71,16.3-4.42,7.37,4.13,14.86,8.13,20.99,14.21,1.75,1.73,4.67,2.12,6.95,4.57-.2-13.57-4.23-25.65-6.33-38.04-2.2-12.94-4.82-25.82-7.26-38.72-.5-2.67-.53-5.15,2.1-6.93,2.69-1.82,4.99-.83,7.26.75,9.95,6.93,19.89,13.87,29.84,20.79,1.02.71,2.05,1.41,3.14,2.02,6.72,3.76,11.6,2.82,15.28-3.89,6.03-10.99,11.64-22.22,17.22-33.46,7.93-15.96,15.67-32,23.49-48.01,1.46-2.98,2.94-6.06,6.94-5.94,3.75.11,4.97,3.11,6.37,5.95,11.88,24.06,23.79,48.1,35.73,72.13,1.25,2.51,2.67,4.93,4.08,7.35,5.24,9.03,10.82,10.41,19.37,4.37,8.63-6.08,17.04-12.48,25.55-18.73,1.25-.92,2.49-1.87,3.83-2.64,2.18-1.26,4.49-2.35,6.89-.54,2.37,1.78,2.78,4.09,2.25,7.04-4.26,23.65-8.37,47.32-12.48,71-.23,1.31-.52,2.74.51,4.44,6.58-4.67,12.74-9.9,19.83-13.67,4.01-2.13,7.49-5.13,12.49-5.6,6.14-.58,9.4,2.2,12.09,7.17,5.52,10.2,8.55,21.17,10.82,32.43-1.45,2.8-.35,5.81-.68,8.71-.15,1.33.35,3.18-1.66,3.29-2.49.13-3.24,2.64-5.03,3.53-1.16-1.04-.36-2.78-1.83-3.35-.33-1.97-.64-3.95-.99-5.92-1.94-10.85-3.89-21.65-9.48-31.45-1.75-3.06-4.09-3.11-5.85-1.61-4.38,3.75-9.56,6.26-13.97,9.94-9.28,7.75-17.85,16.16-25.11,25.86-5.73,7.66-11.34,15.4-15.17,24.26l.06.09h-.39s-.16.37-.16.37c-5.11,8.85-9.54,17.98-12.41,27.86-.77,2.67,1.25,2.08,2.12,2.52,6.71,3.41,13.77,6.14,19.84,10.75.24.9.97.95,1.71.97l.06.04c.83,1.55,1.76,2.95,3.86,2.63l-.03-.02c.17.98.9,1.08,1.69,1.1l1.08.85c.11.85.74,1,1.43,1.09l.25-.04.12.22c.08,1.2.75,1.7,1.91,1.6h-.02c.34.29.69.59,1.03.9l-.04-.05c.35.32.7.64,1.04.97l-.09-.11c.24,1.17.71,2.04,2.15,1.61l.18-.06c-.36.73-.65,1.65-.01,2.19,4.61,3.91,6.6,9.69,10.21,14.3,9.06,11.57,10.82,24.03,4.23,37.33-2.57,5.2-5.55,10.2-8.54,15.66,10.45-1.13,20.28-2.19,30.1-3.25-1.03,1.67-2.32,2.43-3.64,3.11-6.9,3.54-14,6.65-21.36,9.02-11.73,3.77-23.05,9.03-35.5,10.29-2.39.24-3.35,1.31-3.17,3.6-5.49.39-10.95.27-16.96-.25,3.92-3.69,8.25-4.22,12.33-5.47,6.35-1.96,12.68-4.02,18.87-6.42,5.52-2.14,10.54-5.21,15.38-10.37-11.17.65-20.84,4.08-31.06,3.01-11.14-1.16-24.35-6.61-25.64-12.7,2.94.69,5.75,1.59,8.63,2,14.83,2.1,29.89-2.12,35.06-18.18,1.18-3.68,1.1-7.36,1.28-11.07,4.19-.49,8.56.31,13.11-1.36-.81-.86-1.14-1.46-1.64-1.7-9.22-4.41-18.16-9.64-27.77-12.91-10.43-3.56-20.74-2.39-29.31,6.06-2.98,2.94-4.76,6.81-8.1,9.36,3.14-16.46,4-32.74-3.59-48.4.1-1.43-.47-2.43-1.85-2.94l.03.05c.04-1.64-.73-2.62-2.35-2.9l-.34-.03-.12-.31c-2.7-.36-2.92-.31-2.43,1.82,1.26,5.52.33,11.1.61,16.64.05,1,.51,2.45-.73,2.9-1.65.6-1.92-1.12-2.49-2.1-2.3-3.96-3.37-8.54-6.16-12.25-1.53-2.21-2.07-4.8-2.87-7.31-2.06-6.5-2.91-13.35-5.53-19.7-.36-.87-.43-1.85-1.58-2.02-.76-.11-1.16.29-1.12,1.05.27,4.26-1.86,7.99-2.66,12.02-1.88,9.37-5.96,18-9.32,26.88-1.37,3.62-5.14,4.54-6.78,8.53-1.65-9.88.21-18.68,2.07-28.62-8.09,8.8-11.43,18.52-12.93,28.91-1.3,8.95.65,17.75,2.3,26.51-1.28-.38-2-1.39-2.72-2.42-10.35-14.79-25.68-16.6-41.15-9.31-6.57,3.1-12.65,7.25-19.69,9.35-1.64-1.33-2.53-.93-2.7,1.16-.37.25-.75.5-1.12.75-.92.12-1.89.37-1.33,1.56.48,1.03,1.35,1.56,2.35.4,3.41.05,6.81.1,10.22.15.07,2.77,1.83,4.86,2.9,7.22l.06.23c-.08,4.65.53,9.01,4.71,11.98l-.05-.06c.27.33.54.65.8.98l.14.2c.1,1.76,1.05,2.6,2.79,2.62h0c.35.31.7.61,1.04.92l-.1-.09c.29.96,1.09,1,1.88,1.07l-.04-.03c.37.29.74.58,1.11.87l-.11-.1c.29,1.01,1.05,1.11,1.93,1l-.02-.02c2.71,2.77,5.88,4.24,9.87,3.96,2.93-.21,5.92.2,8.84-.09,3.43-.34,3.48,1.33,2.76,3.79-6.83,3.93-14.17,6.08-22.05,5.34-8.02-.76-16.07-1.66-23.98-3.13-11.43-2.12-22.86-2.51-35.25-1.98,10.17,5.02,20.01,8.08,30.24,10.09,13.51,2.66,26.98,5.56,39.98,10.24-1.52,1.84-3.54,2.06-5.78,2.02-3.77-.07-7.64-.63-11.5,1.49,2.17.31,3.97.56,5.76.82-14.09,1.24-28.28-.45-42.35,1.54-12.04,1.7-24.11,3.26-37.19,5.02,7.77,5.84,16.26,7.68,23.71,11.62,2.47,6.21,4.94,12.42,9.15,17.73,2.36,3.85,5.04,7.45,8.34,10.55,3.82,5.27,8.74,9.34,14.02,13.04,4.06,3.56,8.21,7,13.18,9.27l5.69,3.81c.3.91,1.05.94,1.82.91h0c.35.87,1.09.92,1.87.88l.08.04c2.48,4.46,7.31,6.08,11.28,8.15,9.36,4.88,19.49,8.17,29.52,11.53,15.4,5.16,31.86,6.24,47.05,12.24-4.4,1.95-5.29,5.65-5.15,10.01.68,21.07.28,42.14-.03,63.21-.13,8.42-5.3,12.44-14.67,12.07-6.24-.25-10.35-5.49-10.32-13,.08-19.83.12-39.66.15-59.49.02-11.82-3.2-14.8-14.63-12.64-37,6.99-73.96,14.18-110.93,21.32-2.55.49-5.04,1.27-7.58,1.81-6.4,1.36-9.91-1.39-9.04-7.82.86-6.43,2.62-12.74,3.96-19.11.54-2.58,1.13-5.16,1.53-7.77,1.03-6.71-.56-12.14-5.98-17.02-23.35-21.05-46.33-42.52-69.51-63.76-20.07-18.39-40.23-36.69-60.33-55.05-1.25-1.14-2.35-2.47-3.47-3.75-2.85-3.28-1.63-5.85,1.34-8.26,3.17-2.58,7.15-2.7,10.8-3.78,3.83-1.14,7.79-1.87,11.68-2.84,9.01-2.24,11.49-6.31,9.38-15.28-6.06-25.75-11.77-51.58-18.35-77.2-2.3-8.94,2.23-12.83,10.58-10.05,2.34,2.72,5.5,2.16,8.52,2.13.28-.1.52-.04.73.16,1.12,1.35,2.61.75,3.99.78Zm183.18,13.12l.03.02c-.2-.57-.31-1.19-.6-1.7-12.62-22.32-28.82-41.32-50.83-54.9-8.15-5.03-8.51-4.62-12.3,4.15-9.09,21.05-7.38,43.22-5.97,65.02.66,10.28,3.29,20.78,5.66,31.05,3.59,15.54,3.39,31.1.54,46.71-1.97,4.53-1.69,9.08-.18,13.66,4-4.39,5.56-10.18,8.56-15.15,11.3-18.68,25.43-34.61,43.9-46.46,7.12-4.05,14.14-8.28,21.81-11.27,1.33-.52,3.47-.57,2.38-3.28-3.28-8.17-6.02-16.59-10.86-24.05-.72-1.26-1.43-2.53-2.15-3.79Z"/>
  <path class="cls-2" d="m462.13,171.26c5.08-5.28,7.56-4.92,10.36,1.56,2.88,6.66,5.59,13.4,8.62,19.99,3.13,6.81,5.52,8.18,12.81,6.73,9.71-1.93,19.64-2.91,29.11-5.93,3.42-1.09,7.14.56,10.32-1.56,2.86-.39,6.22,1.61,8.45-1.79,0,0-.02.01-.02.01,2.53-.41,5.55,1.3,7.48-1.73,2.49-1.61,5.38-1.46,8.06-1.29,3.71.24,5.02,3.12,4.42,6.37-1.31,7.12-2.93,14.19-4.54,21.26-4.66,20.45-9.49,40.87-13.99,61.36-1.12,5.08.1,10.84,7.36,13.53,7.08,2.63,14.53,3.3,21.68,5.4,2.93.86,5.49,1.72,6.45,5.12.98,3.49-.87,5.64-3.09,7.67-17.52,16-35.11,31.92-52.57,47.99-14.25,13.12-28.27,26.47-42.52,39.59-11.34,10.44-22.57,21.02-34.41,30.86-7.01,5.83-8.46,12.66-6.74,20.79,1.67,7.88,3.71,15.69,5.52,23.54,1.65,7.18-1.44,10.26-8.69,8.81-22.12-4.42-44.25-8.81-66.37-13.22-11.31-2.25-22.62-4.52-33.92-6.79,2.05-5.2,5.53-9.66,7.46-14.95,2.28-6.24,2.75-6.37,9.16-4.63,10.19,2.76,20.52,3.56,30.9,1.73,16.49-2.92,29.92-11.96,41.97-22.89,18.85-17.1,29.76-38.88,33.88-63.81,3.7-22.38,3.5-45-.11-67.38-2.3-14.24-1.33-28.17.95-42.15,2.07-12.72,4.32-25.33,4.27-38.36-.05-12.03-1.62-23.89-2.22-35.84Z"/>
  <path class="cls-1" d="m462.13,171.26c.6,11.95,2.17,23.81,2.22,35.84.05,13.02-2.2,25.64-4.27,38.36-2.27,13.99-3.25,27.92-.95,42.15,3.61,22.38,3.81,45,.11,67.38-4.12,24.93-15.02,46.71-33.88,63.81-12.05,10.93-25.48,19.97-41.97,22.89-10.38,1.84-20.71,1.04-30.9-1.73-6.41-1.74-6.88-1.61-9.16,4.63-1.94,5.29-5.41,9.76-7.46,14.95-7.26-.28-14.18-2.69-21.41-3.38-2.03-.19-3.73.95-5.61.32-15.19-6-31.65-7.08-47.05-12.24-10.03-3.36-20.15-6.65-29.52-11.53-3.97-2.07-8.81-3.69-11.28-8.15,14.2,6.4,28.96,11.06,44.42,12.83,16.39,1.88,32.85,2.13,49.29.04,14.05-1.79,27.81-4.75,40.96-10.16,5.86-2.05,11.27-5.02,16.57-8.21,5.07-3.73,10.68-6.71,15.09-11.32,4.43-2.99,8.32-6.57,11.59-10.82,3.98-3.69,7.3-7.92,9.97-12.65,4.03-4.63,5.81-10.43,8.25-15.89.91-1.48,2.58-1.52,3.96-2.11,6.55-2.78,13.09-5.59,19.98-8.53-2.98-1.88-5.74-1.48-8.32-1.85-11.04-1.55-21.98-3.87-33.19-4.05-1.22-.13-2.44-.35-3.66-.38-13.11-.36-26.22-.69-39.33-1.03-.18-2.29.78-3.36,3.17-3.6,12.45-1.26,23.77-6.51,35.5-10.29,7.36-2.37,14.47-5.48,21.36-9.02,1.33-.68,2.61-1.44,3.64-3.11-9.82,1.06-19.64,2.12-30.1,3.25,2.99-5.46,5.96-10.46,8.54-15.66,6.59-13.3,4.83-25.76-4.23-37.33-3.61-4.61-5.6-10.39-10.21-14.3-.63-.54-.34-1.46.01-2.19,16.25,13.38,28.35,29.96,37.39,49.82,1.42-9.36.12-17.59-.91-25.71-.61-4.74.47-9.72-1.68-14.27.12-1.39,0-2.85.39-4.15,3.48-11.43,5.03-23.25,7.15-34.95,2.7-14.91,2.98-30,2.86-45.11,1.47.57.67,2.32,1.83,3.35,1.79-.89,2.54-3.4,5.03-3.53,2.01-.11,1.5-1.96,1.66-3.29.33-2.89-.76-5.9.68-8.71.83,6.57,1.67,13.14,2.44,19.28,4.73-4.46,9.68-9.06,14.55-13.75,2.1-2.03,3.57-4.74,6.46-5.91Z"/>
  <path class="cls-1" d="m143.5,177.23c.97,5.3,1.36,10.59-.25,15.84.08-5.28.17-10.56.25-15.84Z"/>
  <path class="cls-1" d="m541.79,190.26c-2.22,3.41-5.59,1.4-8.45,1.79,2.74-.94,5.49-1.85,8.45-1.79Z"/>
  <path class="cls-1" d="m36.82,190.22c-3.03.03-6.18.59-8.52-2.13,2.88.56,5.89.59,8.52,2.13Z"/>
  <path class="cls-1" d="m549.25,188.54c-1.93,3.04-4.95,1.32-7.48,1.73,2.38-1.05,4.86-1.72,7.48-1.73Z"/>
  <path class="cls-1" d="m41.53,191.15c-1.38-.02-2.87.58-3.99-.78,1.38-.02,2.86-.55,3.99.78Z"/>
  <path class="cls-3" d="m356.61,350.42c13.11.34,26.22.67,39.33,1.03,1.22.03,2.44.25,3.66.38-.63,2.25-1.23,4.5-1.89,6.74-1.19,4.04-3.28,5.79-7.96,4.62-4.46-1.11-9.23-1-13.86-1.39-10.5-.89-20.99-1.96-31.51-2.56-6.27-.36-12.65-1.22-19.81,1.17,2.38.66,3.83,1.14,5.3,1.46,17.73,3.88,35.29,8.33,52.66,13.62,4.61,1.41,3.13,2.79,1.49,5.08-.63.88-1.55,1.6-2.03,2.55-1.52,3.01-3.38,3.46-6.42,1.84-3.27-1.74-6.84-2.98-10.35-4.23-15.09-5.38-30.57-9.36-46.25-12.61-2.36-.49-5.99-1.98-6.58.28-.63,2.38,3.43,2.75,5.55,3.79,14.25,6.96,29.4,11.92,43.33,19.59,6.76,3.72,6.8,3.57,2.15,9.51-2.12,2.71-3.81,3.22-6.77.59-7.02-6.22-15.26-10.58-24.2-14.42-.36,10.23-5.21,17.6-13.39,22.51-15.54,9.33-31.85,10.51-48.6,3.38-10.1-4.3-17.12-11.4-18.5-22.67-.46-3.75-1.79-3.28-3.96-1.97-6.39,3.85-13.01,7.41-19,11.81-6.85,5.02-13.65,10.32-17.43,18.37-4.97-2.27-9.11-5.71-13.18-9.27-.66-2.01-.08-3.36,1.75-4.63,9.84-6.85,20.2-12.76,31.1-17.69,12.14-5.49,24.4-10.74,36.57-16.18,1.55-.69,3.65-1.02,3.9-3.75-30.76,5.26-60.13,13.98-87.34,29.22-3.3-3.1-5.98-6.7-8.34-10.55.25-1.99,1.99-2.09,3.36-2.73,6.5-3,13.36-4.94,20.17-7.02,18.37-5.62,36.96-10.37,55.75-14.35,1.58-.34,4.38.37,4.23-1.68-.18-2.45-3.04-1.28-4.65-1.28-8.84.05-17.68.42-26.52.74-12.75.46-25.15,3.13-37.74,4.58-7.98.92-15.71,3.39-23.76,4-7.45-3.94-15.94-5.78-23.71-11.62,13.08-1.76,25.14-3.32,37.19-5.02,14.07-1.99,28.26-.3,42.35-1.54,4.04-.04,8.11.18,12.12-.2,2.85-.27,6.06,1.35,8.57-1.27-2.79-1.8-5.79-2.96-9.17-2.85-13-4.68-26.47-7.58-39.98-10.24-10.23-2.02-20.07-5.08-30.24-10.09,12.38-.53,23.82-.13,35.25,1.98,7.92,1.47,15.96,2.37,23.98,3.13,7.88.74,15.22-1.4,22.05-5.34,4.23-.55,6.59-3.79,9.45-6.43-5.3.5-10.34,1.76-15.58,1.81-5.38.06-10.37-1.32-15.34-3.04,0,0,.02.02.03.02-.37-.86-1.21-.81-1.93-1,0,0,.11.1.11.1-.37-.29-.74-.58-1.11-.87,0,0,.04.03.04.03-.39-.77-1.13-.94-1.88-1.07,0,0,.1.09.1.09-.35-.31-.7-.61-1.04-.92,0,0,0,0,0,0-.93-.87-1.86-1.75-2.79-2.62,0,0-.14-.2-.14-.2-.27-.33-.54-.66-.81-.98,0,0,.05.06.05.06-2.2-3.74-3.24-7.95-4.71-11.98,0,0-.06-.23-.06-.23-.2-2.41-.4-4.82-.6-7.23,4.24-1.73,6.73-.89,6.85,4.27.04,1.8.68,3.67,1.38,5.37,5.82,14.14,24.33,18.53,34.51,7.96,2.2-2.29,3.42-5.11,5.16-8.07,2.61,6.54,5.09,12.79,7.85,19.73,3.28-10.96,1.73-20.98-1.9-30.89-1.65-8.76-3.59-17.56-2.3-26.51,1.51-10.39,4.84-20.11,12.93-28.91-1.86,9.93-3.72,18.73-2.07,28.62,1.64-3.98,5.42-4.91,6.78-8.53,3.35-8.88,7.44-17.51,9.32-26.88.81-4.03,2.93-7.76,2.66-12.02-.05-.75.36-1.15,1.12-1.05,1.15.17,1.22,1.14,1.58,2.02,2.63,6.35,3.47,13.19,5.53,19.7.79,2.51,1.34,5.1,2.87,7.31,2.02,7.32,5.59,13.87,10.2,21.07.74-9.19.88-17.33-.06-25.47-.14-1.23-.96-2.4,1.06-2.61l.12.31s.34.03.33.03c.78.97,1.57,1.93,2.36,2.9,0,0-.03-.05-.03-.05.29,1.19.83,2.21,1.85,2.94,7.6,15.66,6.74,31.94,3.59,48.4-3.07,9.52-4.86,19.09-1.32,29.14,2.45-6.07,4.8-11.89,7.3-18.06,1.09,1.67,1.81,2.87,2.62,4.01,4.63,6.54,14.02,10.1,21.42,8.16,9.65-2.53,16.14-9.19,17.03-17.47q.63-5.9,6.66-5.23c-.18,3.72-.1,7.4-1.28,11.07-5.17,16.07-20.23,20.29-35.06,18.18-2.88-.41-5.69-1.31-8.63-2,1.28,6.1,14.49,11.54,25.64,12.7,10.22,1.06,19.89-2.37,31.06-3.01-4.84,5.16-9.86,8.24-15.38,10.37-6.19,2.4-12.52,4.46-18.87,6.42-4.07,1.26-8.4,1.78-12.33,5.47,6.02.51,11.48.64,16.96.25Zm-66.44,13.22c-3.87,14.72-12.64,24.61-27.73,28.38-1.08.27-3.05-.08-3.15,1.98-.11,2.06,1.34,3.09,2.92,3.8.94.43,2.09.58,3.14.58,4.73-.03,9.05-1.52,13.24-3.66,5.8-2.96,10.19-7.39,13.75-13.21,2.67,4.41,5.65,7.81,9.29,10.51,5.34,3.96,11.22,6.7,18.07,6.27,2.53-.16,5.26-1.1,5.43-4.04.16-2.84-2.84-2.07-4.5-2.59-11.93-3.72-20.93-10.57-24.94-22.92-.57-1.77-1.26-3.5-1.89-5.24,2.92-2.35,5.1-5.22,6.2-8.86,1.99-4.76,6.52-6.77,10.32-9.57,1.63-2.05,3.56-4.09,2.82-6.97-1.26-4.86-3.91-8.85-8.46-11.23-8.21-4.3-16.82-3.37-24.78-.1-8.22,3.38-10.7,11.71-6.45,17.58.11,1.07.9,1.78,1.73,1.98,4.47,1.11,6.89,4.27,8.54,8.25.74,4.04,2.9,7.06,6.47,9.08Z"/>
  <path class="cls-6" d="m211.57,418.91c3.77-8.05,10.58-13.35,17.43-18.37,6-4.4,12.61-7.96,19-11.81,2.17-1.31,3.5-1.77,3.96,1.97,1.38,11.27,8.4,18.37,18.5,22.67,16.75,7.12,33.07,5.95,48.6-3.38,8.17-4.91,13.02-12.28,13.39-22.51,8.94,3.85,17.18,8.2,24.2,14.42,2.96,2.63,4.65,2.12,6.77-.59,4.65-5.94,4.61-5.78-2.15-9.51-13.94-7.67-29.09-12.63-43.33-19.59-2.13-1.04-6.18-1.41-5.55-3.79.6-2.26,4.22-.77,6.58-.28,15.68,3.25,31.15,7.23,46.25,12.61,3.51,1.25,7.07,2.49,10.35,4.23,3.04,1.62,4.9,1.17,6.42-1.84.48-.95,1.4-1.67,2.03-2.55,1.65-2.29,3.13-3.68-1.49-5.08-17.37-5.3-34.94-9.75-52.66-13.62-1.48-.32-2.92-.8-5.3-1.46,7.16-2.39,13.55-1.53,19.81-1.17,10.52.6,21.01,1.67,31.51,2.56,4.64.39,9.4.28,13.86,1.39,4.68,1.17,6.77-.58,7.96-4.62.66-2.24,1.26-4.5,1.89-6.74,11.2.18,22.15,2.51,33.19,4.05,2.58.36,5.34-.04,8.32,1.85-6.89,2.95-13.43,5.75-19.98,8.53-1.39.59-3.06.63-3.96,2.11-4.61-1.48-9.45-1.25-14.16-1.97-9.3-1.42-9.11-1.29-13.24,6.46-1.83,3.44-.68,4.72,2.38,5.74,5.6,1.85,11.18,3.77,16.77,5.66-2.67,4.73-5.99,8.95-9.97,12.64-5.22-2.72-10.41-5.49-15.68-8.1-1.22-.61-2.7-2.45-4.05-.73-2.29,2.92-5.54,4.97-7.28,8.33-.09.18.36.84.7,1.02,5.25,2.95,9.24,7.71,14.73,10.29-4.41,4.61-10.02,7.6-15.09,11.32-4.19-2.24-5.2-7.11-8.37-10.19-.82-.8-1.12-2.47-2.8-1.83-1.35.52-1.44,1.79-1.69,3.05-1.17,5.74-2.46,11.46-3.71,17.19-13.15,5.4-26.91,8.36-40.96,10.16-16.44,2.1-32.91,1.84-49.29-.04-15.46-1.77-30.22-6.43-44.42-12.83,0,0-.08-.04-.08-.04-.62-.3-1.24-.59-1.87-.89,0,0,0,0,0,0-.39-.74-1.07-.89-1.82-.91l-5.69-3.81Z"/>
  <path class="cls-3" d="m213.52,246.67c-18.48,11.85-32.61,27.78-43.9,46.46-3.01,4.97-4.56,10.76-8.56,15.15.06-4.55.12-9.1.18-13.66,2.85-15.6,3.05-31.17-.54-46.71-2.37-10.27-5-20.77-5.66-31.05-1.41-21.8-3.12-43.97,5.97-65.02,3.79-8.77,4.15-9.18,12.3-4.15,22.01,13.58,38.21,32.58,50.83,54.9.29.52.4,1.13.6,1.7-2.4-.05-3.97-1.72-5.51-3.14-4.93-4.54-10.25-8.55-15.97-11.99-6.94-4.17-13.9-8.4-22.53-9.27,18.65,18.59,34.26,38.52,32.8,66.78Z"/>
  <path class="cls-3" d="m429.48,183.82c.12,15.1-.16,30.2-2.86,45.11-2.12,11.7-3.66,23.52-7.15,34.95-.4,1.3-.27,2.76-.39,4.15-2.63-10.91-6.75-21.24-11.72-31.28-3.82-7.72-3.71-7.77,4.89-8.13.19,0,.36-.37.95-1.01-7.24-3.51-14.16-6.17-22.53-4.64-8.14,1.49-14.24,5.78-20.5,12.38,5.15-22.42,16.14-39.95,32.92-54.44-1.49-.55-1.9-.81-2.32-.82-.61-.01-1.26.05-1.82.27-9.16,3.53-18,7.6-25.92,13.56-4.78,3.59-8.9,8.01-14.15,10.98,3.83-8.85,9.44-16.6,15.17-24.26,7.26-9.7,15.83-18.1,25.11-25.86,4.41-3.68,9.59-6.19,13.97-9.94,1.76-1.5,4.11-1.45,5.85,1.61,5.59,9.8,7.55,20.6,9.48,31.45.35,1.97.66,3.95.99,5.92Z"/>
  <path class="cls-6" d="m358.9,204.88c5.24-2.98,9.37-7.39,14.15-10.98,7.92-5.95,16.76-10.03,25.92-13.56.56-.22,1.21-.28,1.82-.27.42,0,.83.27,2.32.82-16.78,14.49-27.78,32.02-32.92,54.44,6.26-6.6,12.36-10.89,20.5-12.38,8.37-1.53,15.29,1.14,22.53,4.64-.6.65-.77,1-.95,1.01-8.6.36-8.71.41-4.89,8.13,4.97,10.04,9.09,20.37,11.72,31.28,2.15,4.54,1.08,9.52,1.68,14.27,1.04,8.12,2.34,16.35.91,25.71-9.04-19.86-21.15-36.44-37.39-49.82,0,0-.18.06-.18.07-.45-.89-1.2-1.39-2.15-1.61,0,0,.09.11.09.11-.35-.32-.7-.64-1.04-.97,0,0,.04.05.04.05-.35-.3-.69-.61-1.03-.91,0,0,.02.01.02.01-.64-.53-1.27-1.07-1.91-1.6l-.12-.22s-.25.04-.25.04c-.48-.36-.95-.73-1.43-1.09-.36-.28-.72-.57-1.08-.85-.56-.37-1.13-.73-1.69-1.1,0,0,.03.02.03.02-.96-1.35-2.3-2.15-3.86-2.63,0,0-.06-.04-.06-.04-.57-.32-1.14-.64-1.71-.97-6.06-4.6-13.13-7.34-19.84-10.75-.87-.44-2.89.15-2.12-2.52,2.87-9.88,7.3-19.01,12.41-27.86.22.12.43.24.65.35l-.1-.72-.06-.09Z"/>
  <path class="cls-4" d="m262.93,289.15c3.63,9.91,5.18,19.93,1.9,30.89-2.76-6.94-5.25-13.18-7.85-19.73-1.74,2.96-2.95,5.78-5.16,8.07-10.18,10.57-28.69,6.17-34.51-7.96-.7-1.7-1.34-3.57-1.38-5.37-.11-5.15-2.61-6-6.85-4.27-.77,0-1.53,0-2.3,0-3.41-.05-6.81-.1-10.22-.15-.34-.65-.68-1.3-1.02-1.96.37-.25.75-.5,1.12-.75,1.03-.08,2.09-.09,2.7-1.16,7.04-2.1,13.12-6.25,19.69-9.35,15.46-7.29,30.8-5.48,41.15,9.31.72,1.03,1.44,2.04,2.72,2.42Zm-25.35.3c-.06-3.28-3.14-6.34-6.23-6.19-3.15.15-5.88,3.31-5.47,6.77.39,3.34,1.95,5.92,5.84,5.89,3.32-.03,5.93-2.98,5.86-6.47Z"/>
  <path class="cls-4" d="m374.49,290.96q-6.03-.67-6.66,5.23c-.89,8.27-7.38,14.93-17.03,17.47-7.4,1.94-16.79-1.62-21.42-8.16-.81-1.14-1.53-2.34-2.62-4.01-2.49,6.17-4.84,11.99-7.3,18.06-3.54-10.05-1.75-19.63,1.32-29.14,3.34-2.55,5.13-6.42,8.1-9.36,8.56-8.45,18.88-9.62,29.31-6.06,9.61,3.28,18.55,8.51,27.77,12.91.5.24.83.84,1.64,1.7-4.55,1.67-8.91.87-13.11,1.36Zm-27.45-.9c.09-3.15-3.03-6.71-5.94-6.75-2.97-.05-6.06,3.25-5.86,6.67.19,3.35,1.43,6.12,5.46,6.21,3.3.07,6.24-2.79,6.34-6.12Z"/>
  <path class="cls-6" d="m213.52,246.67c1.46-28.26-14.15-48.19-32.8-66.78,8.63.87,15.59,5.1,22.53,9.27,5.72,3.44,11.04,7.45,15.97,11.99,1.53,1.41,3.11,3.09,5.51,3.14,0,0-.03-.02-.03-.02-.21,1.79.17,3.25,2.15,3.79,4.84,7.47,7.57,15.88,10.86,24.05,1.09,2.71-1.06,2.76-2.38,3.28-7.67,3-14.69,7.22-21.81,11.27Z"/>
  <path class="cls-6" d="m166.89,368.32c8.04-.61,15.78-3.09,23.76-4,12.58-1.45,24.99-4.12,37.74-4.58,8.84-.32,17.68-.7,26.52-.74,1.61,0,4.46-1.18,4.65,1.28.15,2.05-2.65,1.34-4.23,1.68-18.79,3.98-37.38,8.73-55.75,14.35-6.81,2.08-13.67,4.03-20.17,7.02-1.38.63-3.11.74-3.36,2.73-4.21-5.31-6.68-11.52-9.15-17.73Z"/>
  <path class="cls-6" d="m184.37,396.6c27.22-15.24,56.58-23.96,87.34-29.22-.25,2.74-2.35,3.06-3.9,3.75-12.17,5.43-24.43,10.68-36.57,16.18-10.9,4.93-21.27,10.85-31.1,17.69-1.83,1.27-2.4,2.62-1.75,4.63-5.27-3.7-10.2-7.78-14.02-13.04Z"/>
  <path class="cls-1" d="m312.56,235.88c-2.02.21-1.2,1.38-1.06,2.61.94,8.14.81,16.28.06,25.47-4.61-7.2-8.18-13.75-10.2-21.07,2.79,3.72,3.86,8.3,6.16,12.25.57.98.84,2.7,2.49,2.1,1.24-.45.78-1.9.73-2.9-.27-5.54.65-11.11-.61-16.64-.49-2.13-.27-2.18,2.43-1.82Z"/>
  <path class="cls-1" d="m234.24,345.82c3.38-.11,6.38,1.05,9.17,2.85-2.51,2.61-5.72,1-8.57,1.27-4.01.38-8.08.16-12.12.2-1.79-.25-3.59-.51-5.76-.82,3.85-2.11,7.73-1.56,11.5-1.49,2.25.04,4.26-.17,5.78-2.02Z"/>
  <path class="cls-1" d="m223.83,317.6c4.97,1.72,9.96,3.1,15.34,3.04,5.24-.06,10.28-1.32,15.58-1.81-2.86,2.64-5.22,5.88-9.45,6.43.73-2.46.67-4.13-2.76-3.79-2.92.29-5.9-.12-8.84.09-4,.28-7.16-1.19-9.87-3.96Z"/>
  <path class="cls-1" d="m209.75,298.25c1.47,4.03,2.51,8.23,4.71,11.98-4.18-2.96-4.8-7.33-4.71-11.98Z"/>
  <path class="cls-1" d="m161.24,294.62c-.06,4.55-.12,9.1-.18,13.66-1.5-4.57-1.78-9.13.18-13.66Z"/>
  <path class="cls-1" d="m206.79,290.8c.77,0,1.53,0,2.3,0,.2,2.41.4,4.82.6,7.23-1.06-2.37-2.83-4.46-2.9-7.23Z"/>
  <path class="cls-1" d="m195.55,288.68c.34.65.68,1.3,1.02,1.96-1,1.16-1.87.63-2.35-.4-.56-1.19.41-1.44,1.33-1.56Z"/>
  <path class="cls-1" d="m199.37,286.77c-.61,1.07-1.67,1.08-2.7,1.16.17-2.09,1.06-2.49,2.7-1.16Z"/>
  <path class="cls-1" d="m369.73,247.48c1.56.48,2.89,1.28,3.86,2.63-2.1.31-3.03-1.08-3.86-2.63Z"/>
  <path class="cls-1" d="m215.36,311.35c.93.88,1.86,1.75,2.79,2.62-1.73-.02-2.69-.87-2.79-2.62Z"/>
  <path class="cls-1" d="m315.37,239.13c-.79-.97-1.57-1.94-2.36-2.9,1.62.29,2.4,1.26,2.36,2.9Z"/>
  <path class="cls-3" d="m226.87,208.06c-1.99-.54-2.36-2-2.15-3.79.72,1.26,1.44,2.53,2.15,3.79Z"/>
  <path class="cls-1" d="m317.19,242.01c-1.01-.73-1.56-1.75-1.85-2.94,1.37.5,1.94,1.51,1.85,2.94Z"/>
  <path class="cls-1" d="m378.13,253.32c.64.54,1.27,1.07,1.91,1.6-1.16.09-1.83-.41-1.91-1.6Z"/>
  <path class="cls-1" d="m381.97,256.64c.95.22,1.69.72,2.15,1.61-1.44.43-1.91-.44-2.15-1.61Z"/>
  <path class="cls-1" d="m219.09,314.81c.76.13,1.49.29,1.88,1.07-.79-.07-1.6-.11-1.88-1.07Z"/>
  <path class="cls-1" d="m221.93,316.62c.72.19,1.56.14,1.93,1-.87.11-1.64.01-1.93-1Z"/>
  <path class="cls-1" d="m376.33,252.04c.48.36.96.73,1.43,1.09-.69-.09-1.32-.24-1.43-1.09Z"/>
  <path class="cls-1" d="m373.56,250.09c.56.37,1.13.73,1.69,1.1-.79-.01-1.52-.12-1.69-1.1Z"/>
  <path class="cls-1" d="m367.95,246.48c.57.32,1.14.64,1.71.97-.74-.02-1.47-.07-1.71-.97Z"/>
  <path class="cls-1" d="m217.26,422.72c.75.02,1.43.17,1.82.91-.77.02-1.51,0-1.82-.91Z"/>
  <path class="cls-1" d="m219.07,423.63c.62.3,1.25.59,1.87.89-.78.04-1.52-.02-1.87-.89Z"/>
  <path class="cls-1" d="m214.41,310.17c.27.33.54.66.81.98-.27-.33-.54-.66-.81-.98Z"/>
  <path class="cls-1" d="m218.15,313.98c.35.31.7.61,1.04.92-.35-.31-.7-.61-1.04-.92Z"/>
  <path class="cls-1" d="m220.93,315.85c.37.29.74.58,1.11.87-.37-.29-.74-.58-1.11-.87Z"/>
  <path class="cls-1" d="m381.01,255.78c.35.32.69.64,1.04.97-.35-.32-.69-.64-1.04-.97Z"/>
  <path class="cls-1" d="m380.02,254.91c.34.3.69.61,1.03.91-.34-.3-.69-.61-1.03-.91Z"/>
  <path class="cls-3" d="m358.96,204.97l.1.72c-.22-.12-.43-.24-.65-.35,0,0,.16-.36.16-.36h.39Z"/>
  <path class="cls-5" d="m408.9,384.26c-5.59-1.89-11.17-3.8-16.77-5.66-3.06-1.01-4.21-2.3-2.38-5.74,4.13-7.76,3.94-7.88,13.24-6.46,4.71.72,9.56.49,14.16,1.97-2.44,5.46-4.22,11.26-8.25,15.89Z"/>
  <path class="cls-5" d="m387.35,407.73c-5.5-2.59-9.48-7.34-14.73-10.29-.34-.19-.79-.84-.7-1.02,1.74-3.36,4.99-5.41,7.28-8.33,1.35-1.73,2.83.12,4.05.73,5.27,2.61,10.46,5.39,15.68,8.1-3.27,4.24-7.16,7.82-11.59,10.82Z"/>
  <path class="cls-5" d="m355.69,427.26c1.25-5.73,2.54-11.44,3.71-17.19.26-1.26.34-2.53,1.69-3.05,1.68-.64,1.98,1.03,2.8,1.83,3.17,3.09,4.18,7.95,8.37,10.19-5.3,3.2-10.71,6.16-16.57,8.21Z"/>
  <path class="cls-2" d="m273.43,344.32c-4.25-5.87-1.77-14.21,6.45-17.58,7.96-3.27,16.57-4.19,24.78.1,4.54,2.38,7.2,6.37,8.46,11.23.75,2.88-1.18,4.92-2.82,6.97-2.19-2.58-4.52-4.99-7.48-6.73-1.14-.67-2.1-1.17-3.3-.07-3.11,2.86-2.84,13.71.46,16.37-1.09,3.63-3.28,6.5-6.2,8.86-1.2.05-2.4.11-3.61.16-3.57-2.02-5.74-5.04-6.47-9.08,3.65-3.53,3.96-12.18.53-15.51-.75-.72-1.5-1.96-2.65-.77-2.39,2.47-6.23,2.95-8.15,6.04Z"/>
  <path class="cls-4" d="m290.17,363.64c1.2-.05,2.4-.11,3.61-.16.63,1.75,1.32,3.48,1.89,5.24,4.01,12.35,13.01,19.2,24.94,22.92,1.67.52,4.66-.24,4.5,2.59-.16,2.95-2.9,3.88-5.43,4.04-6.85.43-12.73-2.31-18.07-6.27-3.64-2.7-6.63-6.09-9.29-10.51-3.56,5.82-7.95,10.25-13.75,13.21-4.19,2.14-8.51,3.63-13.24,3.66-1.05,0-2.19-.15-3.14-.58-1.58-.71-3.03-1.74-2.92-3.8.11-2.06,2.07-1.71,3.15-1.98,15.1-3.77,23.86-13.65,27.73-28.38Z"/>
  <path class="cls-4" d="m299.97,354.62c-3.3-2.66-3.57-13.51-.46-16.37,1.19-1.1,2.16-.6,3.3.07,2.96,1.74,5.29,4.15,7.48,6.73-3.8,2.81-8.33,4.82-10.32,9.57Z"/>
  <path class="cls-4" d="m273.43,344.32c1.91-3.09,5.75-3.57,8.15-6.04,1.15-1.19,1.91.04,2.65.77,3.42,3.33,3.12,11.98-.53,15.51-1.66-3.98-4.07-7.14-8.54-8.25-.82-.21-1.62-.91-1.73-1.98Z"/>
  <path class="cls-3" d="m237.59,289.46c.07,3.49-2.54,6.43-5.86,6.47-3.89.04-5.45-2.54-5.84-5.89-.41-3.46,2.32-6.63,5.47-6.77,3.09-.14,6.17,2.91,6.23,6.19Z"/>
  <path class="cls-3" d="m347.04,290.07c-.1,3.33-3.04,6.19-6.34,6.12-4.03-.09-5.27-2.86-5.46-6.21-.19-3.41,2.9-6.71,5.86-6.67,2.9.05,6.03,3.6,5.94,6.75Z"/>
</svg>